<?xml version="1.0" encoding="UTF-8"?>
<!DOCTYPE svg PUBLIC "-//W3C//DTD SVG 1.1//EN" "http://www.w3.org/Graphics/SVG/1.1/DTD/svg11.dtd">
<!-- Creator: CorelDRAW 2021.5 -->
<svg xmlns="http://www.w3.org/2000/svg" xml:space="preserve" width="20.2102in" height="17.2016in" version="1.1" style="shape-rendering:geometricPrecision; text-rendering:geometricPrecision; image-rendering:optimizeQuality; fill-rule:evenodd; clip-rule:evenodd"
viewBox="0 0 17973.74 15298.04"
 xmlns:xlink="http://www.w3.org/1999/xlink"
 xmlns:xodm="http://www.corel.com/coreldraw/odm/2003">
 <defs>
  <style type="text/css">
   <![CDATA[
    .fil1 {fill:#FEFEFE}
    .fil0 {fill:#16B858}
   ]]>
  </style>
 </defs>
 <g id="Layer_x0020_1">
  <metadata id="CorelCorpID_0Corel-Layer"/>
  <rect class="fil0" y="0" width="17973.74" height="15298.04" rx="2035.86" ry="2035.86"/>
  <path class="fil1" d="M9102.17 620.44c3903.85,0 7068.55,3164.7 7068.55,7068.55 0,1610.61 -538.86,3095.25 -1445.88,4283.89l-870.66 -623.88c781.23,-1012.79 1246.21,-2282.01 1246.21,-3660.02 0,-3312.73 -2685.5,-5998.23 -5998.23,-5998.23 -3312.73,0 -5998.23,2685.5 -5998.23,5998.23 0,3312.74 2685.5,5998.23 5998.23,5998.23 1448,0 2776.2,-513.06 3812.56,-1367.4l877.01 657.48c-1247.81,1107.4 -2890.01,1780.24 -4689.58,1780.24 -3903.85,0 -7068.55,-3164.7 -7068.55,-7068.56 0,-3903.85 3164.7,-7068.55 7068.55,-7068.55z"/>
  <path class="fil1" d="M9102.17 2690.77c2760.44,0 4998.22,2237.78 4998.22,4998.22 0,2760.45 -2237.78,4998.23 -4998.22,4998.23 -2760.44,0 -4998.22,-2237.78 -4998.22,-4998.23 0,-2760.44 2237.78,-4998.22 4998.22,-4998.22z"/>
  <g id="_2696642886800">
   <path class="fil0" d="M7826.86 7929.84c51.99,407.64 103.99,815.28 155.98,1222.92 214.22,524.11 428.44,1048.22 642.66,1572.32 58.23,-553.22 116.47,-1106.45 174.7,-1659.67 -112.31,-235.02 -224.62,-470.03 -336.93,-705.05 413.88,8.32 827.76,16.64 1241.64,24.95 -101.91,235.02 -203.82,470.04 -305.73,705.05 60.32,530.35 120.63,1060.69 180.94,1591.04 222.54,-540.75 445.08,-1081.49 667.62,-1622.24 37.43,-376.44 74.87,-752.88 112.31,-1129.33 594.82,287.01 1189.64,574.02 1784.47,861.03 -242.63,1728.65 -1180.13,2735.34 -2907.81,2921.08 -1931.04,-110.43 -2943.04,-1119 -3176.87,-2888.07 589.01,-298.02 1178.02,-596.03 1767.03,-894.04z"/>
   <path class="fil0" d="M7651.15 5662.84c-324.91,129.7 -142.5,1167.52 298.39,1057.91 128.94,1503.09 2114.93,1625.87 2284.01,37.98 274.12,-12 529.97,-359.95 472.68,-865.67 -13.05,-115.25 -83.55,-205.3 -168.87,-230.22 158.72,-676.03 132.32,-1190.4 -384.7,-1276.34 -23.5,-584.65 -372.03,-877.78 -1318.33,-634.75 -1283.91,579.64 -1286.47,1094.69 -1183.17,1911.1z"/>
  </g>
 </g>
</svg>
