<svg width="45" height="44" viewBox="0 0 45 44" fill="none" xmlns="http://www.w3.org/2000/svg">
<circle cx="23" cy="22" r="20.5" stroke="#00B95D" stroke-width="3"/>
<path d="M21.0208 14.16V24.168C21.0208 26.072 20.4848 27.56 19.4128 28.632C18.3408 29.704 16.8208 30.24 14.8528 30.24C13.4448 30.24 12.3008 29.984 11.4208 29.472C10.5408 28.96 9.93275 28.24 9.59675 27.312C9.26075 26.384 9.19675 25.32 9.40475 24.12L12.6208 23.544C12.4288 24.952 12.5168 25.968 12.8848 26.592C13.2528 27.216 13.9328 27.528 14.9248 27.528C15.9648 27.528 16.6848 27.208 17.0848 26.568C17.5008 25.928 17.7088 24.976 17.7088 23.712V14.16H21.0208ZM36.7559 16.824H28.2119V20.856H34.9559V23.52H28.2119V30H24.8999V14.16H36.7559V16.824Z" fill="#00B95D"/>
<rect y="8" width="11" height="4" fill="#21252A"/>
<rect x="34" y="30" width="11" height="4" fill="#21252A"/>
<rect x="4" y="12" width="17" height="3" fill="#00B95D"/>
</svg>
